<svg xmlns="http://www.w3.org/2000/svg" viewBox="0 0 512 512">
  <defs>
    <linearGradient id="bgG" x1="0" y1="0" x2="1" y2="1">
      <stop offset="0%" stop-color="#0c0c24"/>
      <stop offset="100%" stop-color="#050510"/>
    </linearGradient>
    <linearGradient id="bicepG" x1="0" y1="0" x2="0" y2="1">
      <stop offset="0%" stop-color="#60A5FA"/>
      <stop offset="55%" stop-color="#3B82F6"/>
      <stop offset="100%" stop-color="#1D4ED8"/>
    </linearGradient>
    <linearGradient id="shine" x1="0" y1="0" x2="1" y2="1">
      <stop offset="0%" stop-color="#ffffff" stop-opacity="0.55"/>
      <stop offset="100%" stop-color="#ffffff" stop-opacity="0"/>
    </linearGradient>
  </defs>

  <rect width="512" height="512" rx="120" fill="url(#bgG)"/>
  <circle cx="256" cy="256" r="232" fill="none" stroke="#3B82F6" stroke-opacity="0.18" stroke-width="2"/>

  <g>
    <path d="M196 372 C176 372 160 356 160 336 L160 300 C160 280 176 264 196 264 L228 264 L228 372 Z" fill="url(#bicepG)"/>
    <path d="M196 264 C150 264 128 226 138 184 C146 150 176 116 222 108 C276 99 332 122 354 168 C372 206 364 252 332 274 C310 289 282 290 256 282 C234 276 214 270 196 264 Z" fill="url(#bicepG)"/>
    <path d="M332 274 C362 262 384 234 384 200 C384 166 358 138 324 138 C338 158 346 182 344 206 C342 236 326 258 300 270 C310 274 322 276 332 274 Z" fill="url(#bicepG)" opacity="0.92"/>
    <path d="M188 200 C196 168 222 138 256 128 C238 150 226 178 226 210 C226 232 234 252 246 268 C222 256 200 232 188 200 Z" fill="url(#shine)"/>
    <path d="M222 152 C204 178 198 212 210 246" fill="none" stroke="#1D4ED8" stroke-width="6" stroke-linecap="round" opacity="0.45"/>
  </g>
</svg>
